# xmcd CD database file
#
# Track frame offsets:
#	150
#	13519
#	26524
#	39191
#	50558
#	61405
#	73058
#	83411
#	95090
#	106873
#	117850
#	128281
#	140038
#	150287
#	162278
#	175205
#	188132
#	199317
#	209737
#	223340
#	236943
#	252002
#	264435
#	275724
#
# Disc length: 3832 seconds
#
# Revision: 0
# Processed by: cddbd v1.5.2PL0 Copyright (c) Steve Scherf et al.
# Submitted via: CDex 1.51
#
DISCID=590ef618
DTITLE=Robert Johnson - Robert Johnson - The Blues Biography
DYEAR=2007
DGENRE=Blues
TTITLE0=(I Believe I'll) Dust My Broom
TTITLE1=32-20 Blues
TTITLE2=Come On In My Kitchen
TTITLE3=Dead Shrimp Blues
TTITLE4=From Four 'Til Late
TTITLE5=Hell Hound On My Trail
TTITLE6=Honeymoon Blues
TTITLE7=If I Had Possession Over Judgement Day
TTITLE8=I'm A Steady Rollin' Man
TTITLE9=Love In Vain
TTITLE10=Malted Milk
TTITLE11=Me And the Devil Blues
TTITLE12=Milkcow's Calf Blues
TTITLE13=Phonograph Blues
TTITLE14=Preaching Blues
TTITLE15=Rambling On My Mind
TTITLE16=Stones In My Passway
TTITLE17=Stop Breaking Down Blues
TTITLE18=Sweet Home Chicago
TTITLE19=Terraplane Blues
TTITLE20=They're Red Hot
TTITLE21=Travelling Riverside Blues
TTITLE22=Walking Blues
TTITLE23=When You Got A Good Friend
EXTD=YEAR: 2007
EXTT0=
EXTT1=
EXTT2=
EXTT3=
EXTT4=
EXTT5=
EXTT6=
EXTT7=
EXTT8=
EXTT9=
EXTT10=
EXTT11=
EXTT12=
EXTT13=
EXTT14=
EXTT15=
EXTT16=
EXTT17=
EXTT18=
EXTT19=
EXTT20=
EXTT21=
EXTT22=
EXTT23=
PLAYORDER=
